<svg id="visual" viewBox="0 0 2000 720" width="2000" height="720" xmlns="http://www.w3.org/2000/svg" xmlns:xlink="http://www.w3.org/1999/xlink" version="1.1"><rect x="0" y="0" width="2000" height="720" fill="#f6f4f9"></rect><path d="M0 329L33.3 341.8C66.7 354.7 133.3 380.3 200 379.3C266.7 378.3 333.3 350.7 400 348.2C466.7 345.7 533.3 368.3 600 378C666.7 387.7 733.3 384.3 800 375.8C866.7 367.3 933.3 353.7 1000 344.8C1066.7 336 1133.3 332 1200 337C1266.7 342 1333.3 356 1400 373.2C1466.7 390.3 1533.3 410.7 1600 401.3C1666.7 392 1733.3 353 1800 347.3C1866.7 341.7 1933.3 369.3 1966.7 383.2L2000 397L2000 721L1966.7 721C1933.3 721 1866.7 721 1800 721C1733.3 721 1666.7 721 1600 721C1533.3 721 1466.7 721 1400 721C1333.3 721 1266.7 721 1200 721C1133.3 721 1066.7 721 1000 721C933.3 721 866.7 721 800 721C733.3 721 666.7 721 600 721C533.3 721 466.7 721 400 721C333.3 721 266.7 721 200 721C133.3 721 66.7 721 33.3 721L0 721Z" fill="#f6f4f9"></path><path d="M0 496L33.3 483.5C66.7 471 133.3 446 200 440.8C266.7 435.7 333.3 450.3 400 453.8C466.7 457.3 533.3 449.7 600 449.3C666.7 449 733.3 456 800 462.2C866.7 468.3 933.3 473.7 1000 480.8C1066.7 488 1133.3 497 1200 493.7C1266.7 490.3 1333.3 474.7 1400 471.2C1466.7 467.7 1533.3 476.3 1600 482.7C1666.7 489 1733.3 493 1800 483.7C1866.7 474.3 1933.3 451.7 1966.7 440.3L2000 429L2000 721L1966.7 721C1933.3 721 1866.7 721 1800 721C1733.3 721 1666.7 721 1600 721C1533.3 721 1466.7 721 1400 721C1333.3 721 1266.7 721 1200 721C1133.3 721 1066.7 721 1000 721C933.3 721 866.7 721 800 721C733.3 721 666.7 721 600 721C533.3 721 466.7 721 400 721C333.3 721 266.7 721 200 721C133.3 721 66.7 721 33.3 721L0 721Z" fill="#efebf4"></path><path d="M0 525L33.3 520.7C66.7 516.3 133.3 507.7 200 512.8C266.7 518 333.3 537 400 551.2C466.7 565.3 533.3 574.7 600 577.8C666.7 581 733.3 578 800 576.2C866.7 574.3 933.3 573.7 1000 568.5C1066.7 563.3 1133.3 553.7 1200 555.7C1266.7 557.7 1333.3 571.3 1400 569.3C1466.7 567.3 1533.3 549.7 1600 534.7C1666.7 519.7 1733.3 507.3 1800 516.2C1866.7 525 1933.3 555 1966.7 570L2000 585L2000 721L1966.7 721C1933.3 721 1866.7 721 1800 721C1733.3 721 1666.7 721 1600 721C1533.3 721 1466.7 721 1400 721C1333.3 721 1266.7 721 1200 721C1133.3 721 1066.7 721 1000 721C933.3 721 866.7 721 800 721C733.3 721 666.7 721 600 721C533.3 721 466.7 721 400 721C333.3 721 266.7 721 200 721C133.3 721 66.7 721 33.3 721L0 721Z" fill="#e8e3ef"></path><path d="M0 597L33.3 594.3C66.7 591.7 133.3 586.3 200 597C266.7 607.7 333.3 634.3 400 644.7C466.7 655 533.3 649 600 634.3C666.7 619.7 733.3 596.3 800 600.5C866.7 604.7 933.3 636.3 1000 638.7C1066.7 641 1133.3 614 1200 605.7C1266.7 597.3 1333.3 607.7 1400 615.7C1466.7 623.7 1533.3 629.3 1600 630C1666.7 630.7 1733.3 626.3 1800 622.7C1866.7 619 1933.3 616 1966.7 614.5L2000 613L2000 721L1966.7 721C1933.3 721 1866.7 721 1800 721C1733.3 721 1666.7 721 1600 721C1533.3 721 1466.7 721 1400 721C1333.3 721 1266.7 721 1200 721C1133.3 721 1066.7 721 1000 721C933.3 721 866.7 721 800 721C733.3 721 666.7 721 600 721C533.3 721 466.7 721 400 721C333.3 721 266.7 721 200 721C133.3 721 66.7 721 33.3 721L0 721Z" fill="#e1daea"></path></svg>