<svg id="visual" viewBox="0 0 2000 950" width="2000" height="950" xmlns="http://www.w3.org/2000/svg" xmlns:xlink="http://www.w3.org/1999/xlink" version="1.1"><path d="M0 49L25.7 49C51.3 49 102.7 49 154 74.3C205.3 99.7 256.7 150.3 308 148.7C359.3 147 410.7 93 461.8 72.3C513 51.7 564 64.3 615.2 73.8C666.3 83.3 717.7 89.7 769 113.5C820.3 137.3 871.7 178.7 923 194.5C974.3 210.3 1025.7 200.7 1077 199C1128.3 197.3 1179.7 203.7 1231 187.8C1282.3 172 1333.7 134 1384.8 105.5C1436 77 1487 58 1538.2 89.7C1589.3 121.3 1640.7 203.7 1692 225.8C1743.3 248 1794.7 210 1846 173.7C1897.3 137.3 1948.7 102.7 1974.3 85.3L2000 68L2000 0L1974.3 0C1948.7 0 1897.3 0 1846 0C1794.7 0 1743.3 0 1692 0C1640.7 0 1589.3 0 1538.2 0C1487 0 1436 0 1384.8 0C1333.7 0 1282.3 0 1231 0C1179.7 0 1128.3 0 1077 0C1025.7 0 974.3 0 923 0C871.7 0 820.3 0 769 0C717.7 0 666.3 0 615.2 0C564 0 513 0 461.8 0C410.7 0 359.3 0 308 0C256.7 0 205.3 0 154 0C102.7 0 51.3 0 25.7 0L0 0Z" fill="#e1daea"></path><path d="M0 115L25.7 123C51.3 131 102.7 147 154 167.7C205.3 188.3 256.7 213.7 308 205.7C359.3 197.7 410.7 156.3 461.8 132.5C513 108.7 564 102.3 615.2 113.5C666.3 124.7 717.7 153.3 769 181.8C820.3 210.3 871.7 238.7 923 257.7C974.3 276.7 1025.7 286.3 1077 294.3C1128.3 302.3 1179.7 308.7 1231 291.2C1282.3 273.7 1333.7 232.3 1384.8 205.3C1436 178.3 1487 165.7 1538.2 186.3C1589.3 207 1640.7 261 1692 284.8C1743.3 308.7 1794.7 302.3 1846 277C1897.3 251.7 1948.7 207.3 1974.3 185.2L2000 163L2000 66L1974.3 83.3C1948.7 100.7 1897.3 135.3 1846 171.7C1794.7 208 1743.3 246 1692 223.8C1640.7 201.7 1589.3 119.3 1538.2 87.7C1487 56 1436 75 1384.8 103.5C1333.7 132 1282.3 170 1231 185.8C1179.7 201.7 1128.3 195.3 1077 197C1025.7 198.7 974.3 208.3 923 192.5C871.7 176.7 820.3 135.3 769 111.5C717.7 87.7 666.3 81.3 615.2 71.8C564 62.3 513 49.7 461.8 70.3C410.7 91 359.3 145 308 146.7C256.7 148.3 205.3 97.7 154 72.3C102.7 47 51.3 47 25.7 47L0 47Z" fill="#e6e0ed"></path><path d="M0 438L25.7 438C51.3 438 102.7 438 154 417.5C205.3 397 256.7 356 308 332.3C359.3 308.7 410.7 302.3 461.8 300.7C513 299 564 302 615.2 306.7C666.3 311.3 717.7 317.7 769 344.7C820.3 371.7 871.7 419.3 923 427.3C974.3 435.3 1025.7 403.7 1077 410C1128.3 416.3 1179.7 460.7 1231 467C1282.3 473.3 1333.7 441.7 1384.8 457.5C1436 473.3 1487 536.7 1538.2 577.8C1589.3 619 1640.7 638 1692 634.8C1743.3 631.7 1794.7 606.3 1846 568.3C1897.3 530.3 1948.7 479.7 1974.3 454.3L2000 429L2000 161L1974.3 183.2C1948.7 205.3 1897.3 249.7 1846 275C1794.7 300.3 1743.3 306.7 1692 282.8C1640.7 259 1589.3 205 1538.2 184.3C1487 163.7 1436 176.3 1384.8 203.3C1333.7 230.3 1282.3 271.7 1231 289.2C1179.7 306.7 1128.3 300.3 1077 292.3C1025.7 284.3 974.3 274.7 923 255.7C871.7 236.7 820.3 208.3 769 179.8C717.7 151.3 666.3 122.7 615.2 111.5C564 100.3 513 106.7 461.8 130.5C410.7 154.3 359.3 195.7 308 203.7C256.7 211.7 205.3 186.3 154 165.7C102.7 145 51.3 129 25.7 121L0 113Z" fill="#ebe6f1"></path><path d="M0 505L25.7 506.5C51.3 508 102.7 511 154 488.8C205.3 466.7 256.7 419.3 308 403.5C359.3 387.7 410.7 403.3 461.8 406.5C513 409.7 564 400.3 615.2 398.8C666.3 397.3 717.7 403.7 769 436.8C820.3 470 871.7 530 923 531.5C974.3 533 1025.7 476 1077 471.3C1128.3 466.7 1179.7 514.3 1231 523.8C1282.3 533.3 1333.7 504.7 1384.8 534.7C1436 564.7 1487 653.3 1538.2 689.8C1589.3 726.3 1640.7 710.7 1692 694.8C1743.3 679 1794.7 663 1846 625C1897.3 587 1948.7 527 1974.3 497L2000 467L2000 427L1974.3 452.3C1948.7 477.7 1897.3 528.3 1846 566.3C1794.7 604.3 1743.3 629.7 1692 632.8C1640.7 636 1589.3 617 1538.2 575.8C1487 534.7 1436 471.3 1384.8 455.5C1333.7 439.7 1282.3 471.3 1231 465C1179.7 458.7 1128.3 414.3 1077 408C1025.7 401.7 974.3 433.3 923 425.3C871.7 417.3 820.3 369.7 769 342.7C717.7 315.7 666.3 309.3 615.2 304.7C564 300 513 297 461.8 298.7C410.7 300.3 359.3 306.7 308 330.3C256.7 354 205.3 395 154 415.5C102.7 436 51.3 436 25.7 436L0 436Z" fill="#f0ecf4"></path><path d="M0 552L25.7 555.2C51.3 558.3 102.7 564.7 154 550.5C205.3 536.3 256.7 501.7 308 492.2C359.3 482.7 410.7 498.3 461.8 493.5C513 488.7 564 463.3 615.2 449.2C666.3 435 717.7 432 769 463.7C820.3 495.3 871.7 561.7 923 572.7C974.3 583.7 1025.7 539.3 1077 531.5C1128.3 523.7 1179.7 552.3 1231 552.3C1282.3 552.3 1333.7 523.7 1384.8 563.2C1436 602.7 1487 710.3 1538.2 753.2C1589.3 796 1640.7 774 1692 758.2C1743.3 742.3 1794.7 732.7 1846 688.3C1897.3 644 1948.7 565 1974.3 525.5L2000 486L2000 465L1974.3 495C1948.7 525 1897.3 585 1846 623C1794.7 661 1743.3 677 1692 692.8C1640.7 708.7 1589.3 724.3 1538.2 687.8C1487 651.3 1436 562.7 1384.8 532.7C1333.7 502.7 1282.3 531.3 1231 521.8C1179.7 512.3 1128.3 464.7 1077 469.3C1025.7 474 974.3 531 923 529.5C871.7 528 820.3 468 769 434.8C717.7 401.7 666.3 395.3 615.2 396.8C564 398.3 513 407.7 461.8 404.5C410.7 401.3 359.3 385.7 308 401.5C256.7 417.3 205.3 464.7 154 486.8C102.7 509 51.3 506 25.7 504.5L0 503Z" fill="#f3f0f6"></path><path d="M0 657L25.7 657C51.3 657 102.7 657 154 647.5C205.3 638 256.7 619 308 617.3C359.3 615.7 410.7 631.3 461.8 613.8C513 596.3 564 545.7 615.2 533C666.3 520.3 717.7 545.7 769 590C820.3 634.3 871.7 697.7 923 702.5C974.3 707.3 1025.7 653.7 1077 636.3C1128.3 619 1179.7 638 1231 630C1282.3 622 1333.7 587 1384.8 617C1436 647 1487 742 1538.2 789.5C1589.3 837 1640.7 837 1692 829.2C1743.3 821.3 1794.7 805.7 1846 764.5C1897.3 723.3 1948.7 656.7 1974.3 623.3L2000 590L2000 484L1974.3 523.5C1948.7 563 1897.3 642 1846 686.3C1794.7 730.7 1743.3 740.3 1692 756.2C1640.7 772 1589.3 794 1538.2 751.2C1487 708.3 1436 600.7 1384.8 561.2C1333.7 521.7 1282.3 550.3 1231 550.3C1179.7 550.3 1128.3 521.7 1077 529.5C1025.7 537.3 974.3 581.7 923 570.7C871.7 559.7 820.3 493.3 769 461.7C717.7 430 666.3 433 615.2 447.2C564 461.3 513 486.7 461.8 491.5C410.7 496.3 359.3 480.7 308 490.2C256.7 499.7 205.3 534.3 154 548.5C102.7 562.7 51.3 556.3 25.7 553.2L0 550Z" fill="#f4f1f7"></path><path d="M0 723L25.7 727.8C51.3 732.7 102.7 742.3 154 737.7C205.3 733 256.7 714 308 704.5C359.3 695 410.7 695 461.8 676C513 657 564 619 615.2 612.7C666.3 606.3 717.7 631.7 769 669.7C820.3 707.7 871.7 758.3 923 755.2C974.3 752 1025.7 695 1077 683.8C1128.3 672.7 1179.7 707.3 1231 697.8C1282.3 688.3 1333.7 634.7 1384.8 653.7C1436 672.7 1487 764.3 1538.2 811.8C1589.3 859.3 1640.7 862.7 1692 861.2C1743.3 859.7 1794.7 853.3 1846 813.7C1897.3 774 1948.7 701 1974.3 664.5L2000 628L2000 588L1974.3 621.3C1948.7 654.7 1897.3 721.3 1846 762.5C1794.7 803.7 1743.3 819.3 1692 827.2C1640.7 835 1589.3 835 1538.2 787.5C1487 740 1436 645 1384.8 615C1333.7 585 1282.3 620 1231 628C1179.7 636 1128.3 617 1077 634.3C1025.7 651.7 974.3 705.3 923 700.5C871.7 695.7 820.3 632.3 769 588C717.7 543.7 666.3 518.3 615.2 531C564 543.7 513 594.3 461.8 611.8C410.7 629.3 359.3 613.7 308 615.3C256.7 617 205.3 636 154 645.5C102.7 655 51.3 655 25.7 655L0 655Z" fill="#f5f3f8"></path><path d="M0 951L25.7 951C51.3 951 102.7 951 154 951C205.3 951 256.7 951 308 951C359.3 951 410.7 951 461.8 951C513 951 564 951 615.2 951C666.3 951 717.7 951 769 951C820.3 951 871.7 951 923 951C974.3 951 1025.7 951 1077 951C1128.3 951 1179.7 951 1231 951C1282.3 951 1333.7 951 1384.8 951C1436 951 1487 951 1538.2 951C1589.3 951 1640.7 951 1692 951C1743.3 951 1794.7 951 1846 951C1897.3 951 1948.7 951 1974.3 951L2000 951L2000 626L1974.3 662.5C1948.7 699 1897.3 772 1846 811.7C1794.7 851.3 1743.3 857.7 1692 859.2C1640.7 860.7 1589.3 857.3 1538.2 809.8C1487 762.3 1436 670.7 1384.8 651.7C1333.7 632.7 1282.3 686.3 1231 695.8C1179.7 705.3 1128.3 670.7 1077 681.8C1025.7 693 974.3 750 923 753.2C871.7 756.3 820.3 705.7 769 667.7C717.7 629.7 666.3 604.3 615.2 610.7C564 617 513 655 461.8 674C410.7 693 359.3 693 308 702.5C256.7 712 205.3 731 154 735.7C102.7 740.3 51.3 730.7 25.7 725.8L0 721Z" fill="#f6f4f9"></path></svg>