<svg id="visual" viewBox="0 0 900 600" width="900" height="600" xmlns="http://www.w3.org/2000/svg" xmlns:xlink="http://www.w3.org/1999/xlink" version="1.1"><path d="M0 55L13.7 54C27.3 53 54.7 51 82 61C109.3 71 136.7 93 163.8 97C191 101 218 87 245.2 88C272.3 89 299.7 105 327 115C354.3 125 381.7 129 409 116C436.3 103 463.7 73 491 66C518.3 59 545.7 75 573 89C600.3 103 627.7 115 654.8 122C682 129 709 131 736.2 126C763.3 121 790.7 109 818 109C845.3 109 872.7 121 886.3 127L900 133L900 0L886.3 0C872.7 0 845.3 0 818 0C790.7 0 763.3 0 736.2 0C709 0 682 0 654.8 0C627.7 0 600.3 0 573 0C545.7 0 518.3 0 491 0C463.7 0 436.3 0 409 0C381.7 0 354.3 0 327 0C299.7 0 272.3 0 245.2 0C218 0 191 0 163.8 0C136.7 0 109.3 0 82 0C54.7 0 27.3 0 13.7 0L0 0Z" fill="#d27e68"></path><path d="M0 121L13.7 127C27.3 133 54.7 145 82 168C109.3 191 136.7 225 163.8 227C191 229 218 199 245.2 198C272.3 197 299.7 225 327 229C354.3 233 381.7 213 409 193C436.3 173 463.7 153 491 148C518.3 143 545.7 153 573 161C600.3 169 627.7 175 654.8 180C682 185 709 189 736.2 196C763.3 203 790.7 213 818 219C845.3 225 872.7 227 886.3 228L900 229L900 131L886.3 125C872.7 119 845.3 107 818 107C790.7 107 763.3 119 736.2 124C709 129 682 127 654.8 120C627.7 113 600.3 101 573 87C545.7 73 518.3 57 491 64C463.7 71 436.3 101 409 114C381.7 127 354.3 123 327 113C299.7 103 272.3 87 245.2 86C218 85 191 99 163.8 95C136.7 91 109.3 69 82 59C54.7 49 27.3 51 13.7 52L0 53Z" fill="#ac4830"></path><path d="M0 325L13.7 342C27.3 359 54.7 393 82 397C109.3 401 136.7 375 163.8 363C191 351 218 353 245.2 362C272.3 371 299.7 387 327 377C354.3 367 381.7 331 409 312C436.3 293 463.7 291 491 294C518.3 297 545.7 305 573 312C600.3 319 627.7 325 654.8 328C682 331 709 331 736.2 325C763.3 319 790.7 307 818 304C845.3 301 872.7 307 886.3 310L900 313L900 227L886.3 226C872.7 225 845.3 223 818 217C790.7 211 763.3 201 736.2 194C709 187 682 183 654.8 178C627.7 173 600.3 167 573 159C545.7 151 518.3 141 491 146C463.7 151 436.3 171 409 191C381.7 211 354.3 231 327 227C299.7 223 272.3 195 245.2 196C218 197 191 227 163.8 225C136.7 223 109.3 189 82 166C54.7 143 27.3 131 13.7 125L0 119Z" fill="#873828"></path><path d="M0 529L13.7 532C27.3 535 54.7 541 82 547C109.3 553 136.7 559 163.8 552C191 545 218 525 245.2 517C272.3 509 299.7 513 327 521C354.3 529 381.7 541 409 548C436.3 555 463.7 557 491 553C518.3 549 545.7 539 573 539C600.3 539 627.7 549 654.8 553C682 557 709 555 736.2 550C763.3 545 790.7 537 818 537C845.3 537 872.7 545 886.3 549L900 553L900 311L886.3 308C872.7 305 845.3 299 818 302C790.7 305 763.3 317 736.2 323C709 329 682 329 654.8 326C627.7 323 600.3 317 573 310C545.7 303 518.3 295 491 292C463.7 289 436.3 291 409 310C381.7 329 354.3 365 327 375C299.7 385 272.3 369 245.2 360C218 351 191 349 163.8 361C136.7 373 109.3 399 82 395C54.7 391 27.3 357 13.7 340L0 323Z" fill="#ac4830"></path><path d="M0 601L13.7 601C27.3 601 54.7 601 82 601C109.3 601 136.7 601 163.8 601C191 601 218 601 245.2 601C272.3 601 299.7 601 327 601C354.3 601 381.7 601 409 601C436.3 601 463.7 601 491 601C518.3 601 545.7 601 573 601C600.3 601 627.7 601 654.8 601C682 601 709 601 736.2 601C763.3 601 790.7 601 818 601C845.3 601 872.7 601 886.3 601L900 601L900 551L886.3 547C872.7 543 845.3 535 818 535C790.7 535 763.3 543 736.2 548C709 553 682 555 654.8 551C627.7 547 600.3 537 573 537C545.7 537 518.3 547 491 551C463.7 555 436.3 553 409 546C381.7 539 354.3 527 327 519C299.7 511 272.3 507 245.2 515C218 523 191 543 163.8 550C136.7 557 109.3 551 82 545C54.7 539 27.3 533 13.7 530L0 527Z" fill="#d27e68"></path></svg>